<svg width="357" height="49" viewBox="0 0 357 49" fill="none" xmlns="http://www.w3.org/2000/svg">
<rect width="356.441" height="49" rx="15" fill="#13544E" fill-opacity="0.82"/>
<path d="M47.22 35.36C45.24 35.36 43.51 34.91 42.03 34.01C40.55 33.11 39.4 31.86 38.58 30.26C37.76 28.64 37.35 26.76 37.35 24.62C37.35 22.46 37.77 20.56 38.61 18.92C39.47 17.26 40.68 15.97 42.24 15.05C43.82 14.11 45.69 13.64 47.85 13.64C50.31 13.64 52.35 14.23 53.97 15.41C55.59 16.59 56.64 18.22 57.12 20.3H52.83C52.51 19.32 51.93 18.56 51.09 18.02C50.25 17.46 49.17 17.18 47.85 17.18C45.75 17.18 44.13 17.85 42.99 19.19C41.85 20.51 41.28 22.33 41.28 24.65C41.28 26.97 41.84 28.77 42.96 30.05C44.1 31.31 45.64 31.94 47.58 31.94C49.48 31.94 50.91 31.43 51.87 30.41C52.85 29.37 53.44 28.01 53.64 26.33H48.33V23.45H57.51V35H53.97L53.67 32.24C52.99 33.24 52.14 34.01 51.12 34.55C50.1 35.09 48.8 35.36 47.22 35.36ZM67.9831 35.36C66.4831 35.36 65.1531 35.04 63.9931 34.4C62.8331 33.76 61.9231 32.86 61.2631 31.7C60.6031 30.54 60.2731 29.2 60.2731 27.68C60.2731 26.14 60.5931 24.77 61.2331 23.57C61.8931 22.37 62.7931 21.44 63.9331 20.78C65.0931 20.1 66.4531 19.76 68.0131 19.76C69.4731 19.76 70.7631 20.08 71.8831 20.72C73.0031 21.36 73.8731 22.24 74.4931 23.36C75.1331 24.46 75.4531 25.69 75.4531 27.05C75.4531 27.27 75.4431 27.5 75.4231 27.74C75.4231 27.98 75.4131 28.23 75.3931 28.49H64.0831C64.1631 29.65 64.5631 30.56 65.2831 31.22C66.0231 31.88 66.9131 32.21 67.9531 32.21C68.7331 32.21 69.3831 32.04 69.9031 31.7C70.4431 31.34 70.8431 30.88 71.1031 30.32H75.0031C74.7231 31.26 74.2531 32.12 73.5931 32.9C72.9531 33.66 72.1531 34.26 71.1931 34.7C70.2531 35.14 69.1831 35.36 67.9831 35.36ZM68.0131 22.88C67.0731 22.88 66.2431 23.15 65.5231 23.69C64.8031 24.21 64.3431 25.01 64.1431 26.09H71.5531C71.4931 25.11 71.1331 24.33 70.4731 23.75C69.8131 23.17 68.9931 22.88 68.0131 22.88ZM78.2828 35V20.12H81.6728L81.9728 22.64C82.4328 21.76 83.0928 21.06 83.9528 20.54C84.8328 20.02 85.8628 19.76 87.0428 19.76C88.8828 19.76 90.3128 20.34 91.3328 21.5C92.3528 22.66 92.8628 24.36 92.8628 26.6V35H89.0228V26.96C89.0228 25.68 88.7628 24.7 88.2428 24.02C87.7228 23.34 86.9128 23 85.8128 23C84.7328 23 83.8428 23.38 83.1428 24.14C82.4628 24.9 82.1228 25.96 82.1228 27.32V35H78.2828ZM103.365 35.36C101.865 35.36 100.535 35.04 99.3748 34.4C98.2148 33.76 97.3048 32.86 96.6448 31.7C95.9848 30.54 95.6548 29.2 95.6548 27.68C95.6548 26.14 95.9748 24.77 96.6148 23.57C97.2748 22.37 98.1748 21.44 99.3148 20.78C100.475 20.1 101.835 19.76 103.395 19.76C104.855 19.76 106.145 20.08 107.265 20.72C108.385 21.36 109.255 22.24 109.875 23.36C110.515 24.46 110.835 25.69 110.835 27.05C110.835 27.27 110.825 27.5 110.805 27.74C110.805 27.98 110.795 28.23 110.775 28.49H99.4648C99.5448 29.65 99.9448 30.56 100.665 31.22C101.405 31.88 102.295 32.21 103.335 32.21C104.115 32.21 104.765 32.04 105.285 31.7C105.825 31.34 106.225 30.88 106.485 30.32H110.385C110.105 31.26 109.635 32.12 108.975 32.9C108.335 33.66 107.535 34.26 106.575 34.7C105.635 35.14 104.565 35.36 103.365 35.36ZM103.395 22.88C102.455 22.88 101.625 23.15 100.905 23.69C100.185 24.21 99.7248 25.01 99.5248 26.09H106.935C106.875 25.11 106.515 24.33 105.855 23.75C105.195 23.17 104.375 22.88 103.395 22.88ZM113.664 35V20.12H117.084L117.444 22.91C117.984 21.95 118.714 21.19 119.634 20.63C120.574 20.05 121.674 19.76 122.934 19.76V23.81H121.854C121.014 23.81 120.264 23.94 119.604 24.2C118.944 24.46 118.424 24.91 118.044 25.55C117.684 26.19 117.504 27.08 117.504 28.22V35H113.664ZM130.289 35.36C129.009 35.36 127.959 35.16 127.139 34.76C126.319 34.34 125.709 33.79 125.309 33.11C124.909 32.43 124.709 31.68 124.709 30.86C124.709 29.48 125.249 28.36 126.329 27.5C127.409 26.64 129.029 26.21 131.189 26.21H134.969V25.85C134.969 24.83 134.679 24.08 134.099 23.6C133.519 23.12 132.799 22.88 131.939 22.88C131.159 22.88 130.479 23.07 129.899 23.45C129.319 23.81 128.959 24.35 128.819 25.07H125.069C125.169 23.99 125.529 23.05 126.149 22.25C126.789 21.45 127.609 20.84 128.609 20.42C129.609 19.98 130.729 19.76 131.969 19.76C134.089 19.76 135.759 20.29 136.979 21.35C138.199 22.41 138.809 23.91 138.809 25.85V35H135.539L135.179 32.6C134.739 33.4 134.119 34.06 133.319 34.58C132.539 35.1 131.529 35.36 130.289 35.36ZM131.159 32.36C132.259 32.36 133.109 32 133.709 31.28C134.329 30.56 134.719 29.67 134.879 28.61H131.609C130.589 28.61 129.859 28.8 129.419 29.18C128.979 29.54 128.759 29.99 128.759 30.53C128.759 31.11 128.979 31.56 129.419 31.88C129.859 32.2 130.439 32.36 131.159 32.36ZM142.073 35V13.4H145.913V35H142.073ZM156.276 35V14H160.116V35H156.276ZM163.696 35V20.12H167.086L167.386 22.64C167.846 21.76 168.506 21.06 169.366 20.54C170.246 20.02 171.276 19.76 172.456 19.76C174.296 19.76 175.726 20.34 176.746 21.5C177.766 22.66 178.276 24.36 178.276 26.6V35H174.436V26.96C174.436 25.68 174.176 24.7 173.656 24.02C173.136 23.34 172.326 23 171.226 23C170.146 23 169.256 23.38 168.556 24.14C167.876 24.9 167.536 25.96 167.536 27.32V35H163.696ZM182.238 35V23.33H180.198V20.12H182.238V18.38C182.238 16.58 182.688 15.3 183.588 14.54C184.508 13.78 185.748 13.4 187.308 13.4H188.958V16.67H187.908C187.248 16.67 186.778 16.8 186.498 17.06C186.218 17.32 186.078 17.76 186.078 18.38V20.12H189.288V23.33H186.078V35H182.238ZM198.483 35.36C197.043 35.36 195.743 35.03 194.583 34.37C193.443 33.71 192.533 32.8 191.853 31.64C191.193 30.46 190.863 29.1 190.863 27.56C190.863 26.02 191.203 24.67 191.883 23.51C192.563 22.33 193.473 21.41 194.613 20.75C195.773 20.09 197.073 19.76 198.513 19.76C199.933 19.76 201.213 20.09 202.353 20.75C203.513 21.41 204.423 22.33 205.083 23.51C205.763 24.67 206.103 26.02 206.103 27.56C206.103 29.1 205.763 30.46 205.083 31.64C204.423 32.8 203.513 33.71 202.353 34.37C201.193 35.03 199.903 35.36 198.483 35.36ZM198.483 32.03C199.483 32.03 200.353 31.66 201.093 30.92C201.833 30.16 202.203 29.04 202.203 27.56C202.203 26.08 201.833 24.97 201.093 24.23C200.353 23.47 199.493 23.09 198.513 23.09C197.493 23.09 196.613 23.47 195.873 24.23C195.153 24.97 194.793 26.08 194.793 27.56C194.793 29.04 195.153 30.16 195.873 30.92C196.613 31.66 197.483 32.03 198.483 32.03ZM209.136 35V20.12H212.556L212.916 22.91C213.456 21.95 214.186 21.19 215.106 20.63C216.046 20.05 217.146 19.76 218.406 19.76V23.81H217.326C216.486 23.81 215.736 23.94 215.076 24.2C214.416 24.46 213.896 24.91 213.516 25.55C213.156 26.19 212.976 27.08 212.976 28.22V35H209.136ZM220.631 35V20.12H224.021L224.351 22.13C224.831 21.41 225.461 20.84 226.241 20.42C227.041 19.98 227.961 19.76 229.001 19.76C231.301 19.76 232.931 20.65 233.891 22.43C234.431 21.61 235.151 20.96 236.051 20.48C236.971 20 237.971 19.76 239.051 19.76C240.991 19.76 242.481 20.34 243.521 21.5C244.561 22.66 245.081 24.36 245.081 26.6V35H241.241V26.96C241.241 25.68 240.991 24.7 240.491 24.02C240.011 23.34 239.261 23 238.241 23C237.201 23 236.361 23.38 235.721 24.14C235.101 24.9 234.791 25.96 234.791 27.32V35H230.951V26.96C230.951 25.68 230.701 24.7 230.201 24.02C229.701 23.34 228.931 23 227.891 23C226.871 23 226.041 23.38 225.401 24.14C224.781 24.9 224.471 25.96 224.471 27.32V35H220.631ZM253.457 35.36C252.177 35.36 251.127 35.16 250.307 34.76C249.487 34.34 248.877 33.79 248.477 33.11C248.077 32.43 247.877 31.68 247.877 30.86C247.877 29.48 248.417 28.36 249.497 27.5C250.577 26.64 252.197 26.21 254.357 26.21H258.137V25.85C258.137 24.83 257.847 24.08 257.267 23.6C256.687 23.12 255.967 22.88 255.107 22.88C254.327 22.88 253.647 23.07 253.067 23.45C252.487 23.81 252.127 24.35 251.987 25.07H248.237C248.337 23.99 248.697 23.05 249.317 22.25C249.957 21.45 250.777 20.84 251.777 20.42C252.777 19.98 253.897 19.76 255.137 19.76C257.257 19.76 258.927 20.29 260.147 21.35C261.367 22.41 261.977 23.91 261.977 25.85V35H258.707L258.347 32.6C257.907 33.4 257.287 34.06 256.487 34.58C255.707 35.1 254.697 35.36 253.457 35.36ZM254.327 32.36C255.427 32.36 256.277 32 256.877 31.28C257.497 30.56 257.887 29.67 258.047 28.61H254.777C253.757 28.61 253.027 28.8 252.587 29.18C252.147 29.54 251.927 29.99 251.927 30.53C251.927 31.11 252.147 31.56 252.587 31.88C253.027 32.2 253.607 32.36 254.327 32.36ZM271.666 35C270.106 35 268.856 34.62 267.916 33.86C266.976 33.1 266.506 31.75 266.506 29.81V23.33H263.956V20.12H266.506L266.956 16.13H270.346V20.12H274.366V23.33H270.346V29.84C270.346 30.56 270.496 31.06 270.796 31.34C271.116 31.6 271.656 31.73 272.416 31.73H274.276V35H271.666ZM279.333 17.81C278.633 17.81 278.053 17.6 277.593 17.18C277.153 16.76 276.933 16.23 276.933 15.59C276.933 14.95 277.153 14.43 277.593 14.03C278.053 13.61 278.633 13.4 279.333 13.4C280.033 13.4 280.603 13.61 281.043 14.03C281.503 14.43 281.733 14.95 281.733 15.59C281.733 16.23 281.503 16.76 281.043 17.18C280.603 17.6 280.033 17.81 279.333 17.81ZM277.413 35V20.12H281.253V35H277.413ZM292.001 35.36C290.561 35.36 289.261 35.03 288.101 34.37C286.961 33.71 286.051 32.8 285.371 31.64C284.711 30.46 284.381 29.1 284.381 27.56C284.381 26.02 284.721 24.67 285.401 23.51C286.081 22.33 286.991 21.41 288.131 20.75C289.291 20.09 290.591 19.76 292.031 19.76C293.451 19.76 294.731 20.09 295.871 20.75C297.031 21.41 297.941 22.33 298.601 23.51C299.281 24.67 299.621 26.02 299.621 27.56C299.621 29.1 299.281 30.46 298.601 31.64C297.941 32.8 297.031 33.71 295.871 34.37C294.711 35.03 293.421 35.36 292.001 35.36ZM292.001 32.03C293.001 32.03 293.871 31.66 294.611 30.92C295.351 30.16 295.721 29.04 295.721 27.56C295.721 26.08 295.351 24.97 294.611 24.23C293.871 23.47 293.011 23.09 292.031 23.09C291.011 23.09 290.131 23.47 289.391 24.23C288.671 24.97 288.311 26.08 288.311 27.56C288.311 29.04 288.671 30.16 289.391 30.92C290.131 31.66 291.001 32.03 292.001 32.03ZM302.654 35V20.12H306.044L306.344 22.64C306.804 21.76 307.464 21.06 308.324 20.54C309.204 20.02 310.234 19.76 311.414 19.76C313.254 19.76 314.684 20.34 315.704 21.5C316.724 22.66 317.234 24.36 317.234 26.6V35H313.394V26.96C313.394 25.68 313.134 24.7 312.614 24.02C312.094 23.34 311.284 23 310.184 23C309.104 23 308.214 23.38 307.514 24.14C306.834 24.9 306.494 25.96 306.494 27.32V35H302.654Z" fill="#ECE3E3"/>
</svg>
