<svg width="25" height="22" viewBox="0 0 25 22" fill="none" xmlns="http://www.w3.org/2000/svg">
<g id="Hide">
<path id="Fill 1" fill-rule="evenodd" clip-rule="evenodd" d="M9.70093 14.5209C9.46093 14.5209 9.22093 14.4296 9.03843 14.2459C8.11593 13.3246 7.60718 12.0996 7.60718 10.7971C7.60718 8.09713 9.80218 5.90088 12.4997 5.90088C13.7972 5.90088 15.0572 6.42463 15.9559 7.33838C16.3184 7.70838 16.3147 8.30088 15.9447 8.66338C15.5759 9.02838 14.9834 9.02213 14.6197 8.65463C14.0709 8.09588 13.2984 7.77588 12.4997 7.77588C10.8359 7.77588 9.48218 9.13088 9.48218 10.7971C9.48218 11.5984 9.79593 12.3534 10.3634 12.9209C10.7297 13.2871 10.7297 13.8796 10.3647 14.2459C10.1809 14.4296 9.94093 14.5209 9.70093 14.5209Z" fill="black"/>
<path id="Fill 3" fill-rule="evenodd" clip-rule="evenodd" d="M13.2092 15.6134C12.7655 15.6134 12.3705 15.2959 12.288 14.8434C12.1955 14.3346 12.533 13.8459 13.043 13.7534C14.268 13.5309 15.238 12.5584 15.458 11.3321C15.5505 10.8234 16.038 10.4884 16.5467 10.5759C17.0567 10.6671 17.3955 11.1546 17.3042 11.6646C16.9455 13.6559 15.368 15.2359 13.378 15.5984C13.3217 15.6084 13.2642 15.6134 13.2092 15.6134Z" fill="black"/>
<g id="Group 7">
<mask id="mask0_4_2033" style="mask-type:luminance" maskUnits="userSpaceOnUse" x="0" y="0" width="21" height="19">
<path id="Clip 6" fill-rule="evenodd" clip-rule="evenodd" d="M0 0.780029H20.1078V18.4027H0V0.780029Z" fill="white"/>
</mask>
<g mask="url(#mask0_4_2033)">
<path id="Fill 5" fill-rule="evenodd" clip-rule="evenodd" d="M5.81788 18.4027C5.61538 18.4027 5.41163 18.3364 5.23913 18.2027C3.12538 16.5427 1.33913 14.1089 0.0766309 11.1664C-0.0258691 10.9289 -0.0258691 10.6614 0.0766309 10.4252C1.35288 7.47019 3.15038 5.02394 5.27538 3.35269C9.60788 -0.0760617 15.3754 -0.0873118 19.7516 3.37769C20.1579 3.69894 20.2266 4.28894 19.9054 4.69519C19.5829 5.09894 18.9954 5.17019 18.5879 4.84769C14.8804 1.91269 10.1041 1.92269 6.43663 4.82519C4.64163 6.23769 3.10038 8.29519 1.96288 10.7977C3.08913 13.2852 4.61663 15.3302 6.39788 16.7277C6.80538 17.0477 6.87538 17.6377 6.55538 18.0439C6.37038 18.2789 6.09538 18.4027 5.81788 18.4027Z" fill="black"/>
</g>
</g>
<g id="Group 10">
<mask id="mask1_4_2033" style="mask-type:luminance" maskUnits="userSpaceOnUse" x="8" y="5" width="17" height="16">
<path id="Clip 9" fill-rule="evenodd" clip-rule="evenodd" d="M8.39673 5.92603H24.9999V20.8613H8.39673V5.92603Z" fill="white"/>
</mask>
<g mask="url(#mask1_4_2033)">
<path id="Fill 8" fill-rule="evenodd" clip-rule="evenodd" d="M12.5 20.8613C11.3288 20.8613 10.1638 20.6713 9.03877 20.2975C8.54752 20.1338 8.28127 19.6025 8.44502 19.1113C8.60877 18.6188 9.13752 18.3575 9.63127 18.5175C10.565 18.8288 11.53 18.9863 12.5 18.9863C16.785 18.9863 20.7013 15.9338 23.0375 10.795C22.4675 9.54628 21.8038 8.41503 21.0613 7.42753C20.75 7.01378 20.8325 6.42503 21.2463 6.11378C21.6588 5.80253 22.2475 5.88753 22.5588 6.30003C23.4638 7.50128 24.2588 8.89003 24.9225 10.4225C25.0263 10.66 25.0263 10.93 24.9225 11.1663C22.3025 17.2375 17.6588 20.8613 12.5 20.8613Z" fill="black"/>
</g>
</g>
<g id="Group 13">
<mask id="mask2_4_2033" style="mask-type:luminance" maskUnits="userSpaceOnUse" x="1" y="0" width="23" height="22">
<path id="Clip 12" fill-rule="evenodd" clip-rule="evenodd" d="M1.70435 0H23.2962V21.5913H1.70435V0Z" fill="white"/>
</mask>
<g mask="url(#mask2_4_2033)">
<path id="Fill 11" fill-rule="evenodd" clip-rule="evenodd" d="M2.64153 21.5912C2.40153 21.5912 2.16153 21.5 1.97903 21.3162C1.61278 20.95 1.61278 20.3575 1.97903 19.9912L21.6965 0.273711C22.0628 -0.0925391 22.6553 -0.0925391 23.0215 0.273711C23.3878 0.639961 23.3878 1.23371 23.0215 1.59996L3.30403 21.3162C3.12153 21.5 2.88153 21.5912 2.64153 21.5912Z" fill="black"/>
</g>
</g>
</g>
</svg>
