<svg width="26" height="26" viewBox="0 0 26 26" fill="none" xmlns="http://www.w3.org/2000/svg">
<g id="Password">
<g id="Group 3">
<mask id="mask0_218_203" style="mask-type:luminance" maskUnits="userSpaceOnUse" x="0" y="0" width="26" height="26">
<path id="Clip 2" fill-rule="evenodd" clip-rule="evenodd" d="M0.5 0.5H25.4999V25.5H0.5V0.5Z" fill="white"/>
</mask>
<g mask="url(#mask0_218_203)">
<path id="Fill 1" fill-rule="evenodd" clip-rule="evenodd" d="M7.58 2.375C4.41875 2.375 2.375 4.54125 2.375 7.895V18.105C2.375 21.4587 4.41875 23.625 7.58 23.625H18.415C21.58 23.625 23.625 21.4587 23.625 18.105V7.895C23.625 4.54125 21.58 2.375 18.4175 2.375H7.58ZM18.415 25.5H7.58C3.345 25.5 0.5 22.5275 0.5 18.105V7.895C0.5 3.4725 3.345 0.5 7.58 0.5H18.4175C22.6537 0.5 25.5 3.4725 25.5 7.895V18.105C25.5 22.5275 22.6537 25.5 18.415 25.5Z" fill="black"/>
</g>
</g>
<path id="Fill 4" fill-rule="evenodd" clip-rule="evenodd" d="M9.04846 11.623C8.28596 11.623 7.66846 12.2405 7.66846 13.0005C7.66846 13.7605 8.28596 14.378 9.04596 14.378C9.80471 14.378 10.4235 13.7605 10.4235 13.0005C10.4235 12.2418 9.80596 11.6243 9.04846 11.623ZM9.04596 16.253C7.25221 16.253 5.79346 14.793 5.79346 13.0005C5.79346 11.2068 7.25221 9.74805 9.04596 9.74805C10.8422 9.7493 12.2985 11.208 12.2985 13.0005C12.2985 14.793 10.8397 16.253 9.04596 16.253Z" fill="black"/>
<path id="Fill 6" fill-rule="evenodd" clip-rule="evenodd" d="M19.2622 16.2531C18.7447 16.2531 18.3247 15.8331 18.3247 15.3156V13.9369H11.3647C10.8472 13.9369 10.4272 13.5181 10.4272 12.9994C10.4272 12.4819 10.8472 12.0619 11.3647 12.0619H19.2622C19.7797 12.0619 20.1997 12.4819 20.1997 12.9994V15.3156C20.1997 15.8331 19.7797 16.2531 19.2622 16.2531Z" fill="black"/>
<path id="Fill 8" fill-rule="evenodd" clip-rule="evenodd" d="M15.7268 16.2531C15.2093 16.2531 14.7893 15.8331 14.7893 15.3156V12.9994C14.7893 12.4819 15.2093 12.0619 15.7268 12.0619C16.2443 12.0619 16.6643 12.4819 16.6643 12.9994V15.3156C16.6643 15.8331 16.2443 16.2531 15.7268 16.2531Z" fill="black"/>
</g>
</svg>
