<svg width="41" height="41" viewBox="0 0 41 41" fill="none" xmlns="http://www.w3.org/2000/svg">
<path d="M41 20.5C41 31.8218 31.8218 41 20.5 41C9.17816 41 0 31.8218 0 20.5C0 9.17816 9.17816 0 20.5 0C31.8218 0 41 9.17816 41 20.5Z" fill="black" fill-opacity="0.75"/>
<path fill-rule="evenodd" clip-rule="evenodd" d="M16.8994 23.5365H23.8427V25.0365H16.8994V23.5365Z" fill="white"/>
<path fill-rule="evenodd" clip-rule="evenodd" d="M16.8984 19.754H21.7813V21.254H16.8984V19.754Z" fill="white"/>
<path fill-rule="evenodd" clip-rule="evenodd" d="M12.5752 10H23.8875L29.4245 15.7665V30H12.5752V10ZM14.0752 11.5V28.5H27.9245V16.37L23.2483 11.5H14.0752Z" fill="white"/>
<path fill-rule="evenodd" clip-rule="evenodd" d="M23.8418 10.5547V15.9001H28.9489V17.4001H22.3418V10.5547H23.8418Z" fill="white"/>
</svg>
