<svg width="163" height="94" viewBox="0 0 163 94" fill="none" xmlns="http://www.w3.org/2000/svg">
<path d="M10.1 72.8C7.43333 72.8 5.23333 72.2 3.5 71C1.76667 69.8667 0.9 68.3 0.9 66.3C0.9 64.5667 1.46667 63.1667 2.6 62.1C3.73333 61.0333 5.13333 60.5 6.8 60.5C8.33333 60.5 9.83333 60.9667 11.3 61.9C12.8333 62.8333 14.0667 64.8333 15 67.9C15.3333 68.7667 15.7667 69.2333 16.3 69.3C16.9 69.3 17.4333 68.9333 17.9 68.2C18.8333 66.7333 19.6333 64.8667 20.3 62.6C20.9667 60.3333 21.5 57.8333 21.9 55.1C22.3667 52.3667 22.8333 49.4 23.3 46.2C23.7667 42.9333 24.2667 39.4667 24.8 35.8C25.3333 32.6667 25.9 29.1333 26.5 25.2C27.1667 21.2667 27.8333 17.0667 28.5 12.6C28.9667 9.93333 27.9333 8.03333 25.4 6.9L23.5 6L23.7 5H48.8L48.6 6L46.8 6.9C44.4 7.96667 42.9333 9.86666 42.4 12.6L37.9 37.5C36.8333 43.1 35.7 47.5667 34.5 50.9C33.3667 54.1667 32.1333 56.9 30.8 59.1C28.2667 63.5 25.1667 66.9 21.5 69.3C17.9 71.6333 14.1 72.8 10.1 72.8ZM60.8305 72.5C55.8305 72.5 51.7638 70.8667 48.6305 67.6C45.4971 64.3333 43.9305 59.7 43.9305 53.7C43.9305 49.4333 44.6638 45.3667 46.1305 41.5C47.5971 37.6333 49.6305 34.2 52.2305 31.2C54.8971 28.1333 57.9638 25.7333 61.4305 24C64.8971 22.2667 68.6638 21.4 72.7305 21.4C76.9305 21.4 80.1305 22.3667 82.3305 24.3C84.5971 26.1667 85.7305 28.6667 85.7305 31.8C85.7305 34.4 84.4971 36.9667 82.0305 39.5C79.6305 42.0333 76.2305 44.3333 71.8305 46.4C67.4305 48.4 62.2638 49.9333 56.3305 51C56.3971 55.6 57.3971 58.9667 59.3305 61.1C61.2638 63.2333 63.9305 64.3 67.3305 64.3C70.1971 64.3 72.8305 63.5333 75.2305 62C77.6305 60.4 79.6638 58.5333 81.3305 56.4L82.3305 57.1C80.9971 59.7 79.2638 62.1667 77.1305 64.5C75.0638 66.8333 72.6638 68.7667 69.9305 70.3C67.1971 71.7667 64.1638 72.5 60.8305 72.5ZM72.0305 24.1C70.4971 24.1 68.8305 24.7667 67.0305 26.1C65.2971 27.4333 63.6305 29.2667 62.0305 31.6C60.4971 33.8667 59.1971 36.5 58.1305 39.5C57.1305 42.4333 56.5305 45.5667 56.3305 48.9C63.6638 46.9 68.8638 44.2667 71.9305 41C75.0638 37.7333 76.6305 34.0333 76.6305 29.9C76.6305 27.9 76.1971 26.4333 75.3305 25.5C74.4638 24.5667 73.3638 24.1 72.0305 24.1ZM94.8594 72.5C92.6594 72.5 90.8927 71.9333 89.5594 70.8C88.2927 69.6667 87.6594 68.0333 87.6594 65.9C87.6594 64.7 87.7927 63.2667 88.0594 61.6C88.326 59.8667 88.726 57.6667 89.2594 55L94.9594 27.4C95.4927 24.8667 95.926 22.5667 96.2594 20.5C96.6594 18.4333 97.0927 16.1 97.5594 13.5C98.026 10.8333 96.9594 9.03333 94.3594 8.1L92.6594 7.49999L92.8594 6.5L112.459 0.899997L113.059 1.6L100.759 59.6C100.559 60.6 100.393 61.5 100.259 62.3C100.126 63.0333 100.059 63.6667 100.059 64.2C100.059 65.6667 100.693 66.4 101.959 66.4C103.626 66.4 106.059 64.9 109.259 61.9L110.259 62.7C108.593 65.1667 106.493 67.4333 103.959 69.5C101.426 71.5 98.3927 72.5 94.8594 72.5ZM131.298 72.5C129.565 72.5 127.898 72.1333 126.298 71.4C125.565 74.7333 124.932 77.7333 124.398 80.4C123.865 83.0667 123.398 85.6 122.998 88C122.665 90.2 123.598 91.6 125.798 92.2L128.298 93L128.098 94H103.998L104.198 93L106.098 92.5C108.432 91.8333 109.832 90.3333 110.298 88L121.598 34.1C122.065 31.5 121.132 29.6667 118.798 28.6L116.898 27.8L117.098 26.7L135.598 21.3L136.598 22.1L134.498 32.6C137.098 29.3333 140.065 26.6667 143.398 24.6C146.798 22.4667 149.965 21.4 152.898 21.4C155.632 21.4 157.998 22.3667 159.998 24.3C161.998 26.2333 162.998 29.7333 162.998 34.8C162.998 38.4667 162.365 42.1 161.098 45.7C159.898 49.3 158.198 52.7333 155.998 56C153.865 59.2 151.432 62.0333 148.698 64.5C145.965 66.9667 143.098 68.9333 140.098 70.4C137.098 71.8 134.165 72.5 131.298 72.5ZM144.198 28.8C142.665 28.8 140.998 29.4 139.198 30.6C137.398 31.8 135.632 33.4667 133.898 35.6L127.998 64.5C130.465 66.9667 133.032 68.2 135.698 68.2C139.632 68.2 142.865 66.1333 145.398 62C146.332 60.4 147.198 58.3667 147.998 55.9C148.798 53.4333 149.432 50.7667 149.898 47.9C150.432 44.9667 150.698 42.1333 150.698 39.4C150.698 36.0667 150.132 33.4667 148.998 31.6C147.932 29.7333 146.332 28.8 144.198 28.8Z" fill="#13544E"/>
</svg>
