<svg width="98" height="57" viewBox="0 0 98 57" fill="none" xmlns="http://www.w3.org/2000/svg">
<path d="M6.26 43.8022C4.66 43.8022 3.34 43.4422 2.3 42.7222C1.26 42.0422 0.74 41.1022 0.74 39.9022C0.74 38.8622 1.08 38.0222 1.76 37.3822C2.44 36.7422 3.28 36.4222 4.28 36.4222C5.2 36.4222 6.1 36.7022 6.98 37.2622C7.9 37.8222 8.64 39.0222 9.2 40.8622C9.4 41.3822 9.66 41.6622 9.98 41.7022C10.34 41.7022 10.66 41.4822 10.94 41.0422C11.5 40.1622 11.98 39.0422 12.38 37.6822C12.78 36.3222 13.1 34.8222 13.34 33.1822C13.62 31.5422 13.9 29.7622 14.18 27.8422C14.46 25.8822 14.76 23.8022 15.08 21.6022C15.4 19.7222 15.74 17.6022 16.1 15.2422C16.5 12.8822 16.9 10.3622 17.3 7.68216C17.58 6.08217 16.96 4.94217 15.44 4.26217L14.3 3.72217L14.42 3.12217H29.48L29.36 3.72217L28.28 4.26217C26.84 4.90217 25.96 6.04217 25.64 7.68216L22.94 22.6222C22.3 25.9822 21.62 28.6622 20.9 30.6622C20.22 32.6222 19.48 34.2622 18.68 35.5822C17.16 38.2222 15.3 40.2622 13.1 41.7022C10.94 43.1022 8.66 43.8022 6.26 43.8022ZM36.5383 43.6222C33.5383 43.6222 31.0983 42.6422 29.2183 40.6822C27.3383 38.7222 26.3983 35.9422 26.3983 32.3422C26.3983 29.7822 26.8383 27.3422 27.7183 25.0222C28.5983 22.7022 29.8183 20.6422 31.3783 18.8422C32.9783 17.0022 34.8183 15.5622 36.8983 14.5222C38.9783 13.4822 41.2383 12.9622 43.6783 12.9622C46.1983 12.9622 48.1183 13.5422 49.4383 14.7022C50.7983 15.8222 51.4783 17.3222 51.4783 19.2022C51.4783 20.7622 50.7383 22.3022 49.2583 23.8222C47.8183 25.3422 45.7783 26.7222 43.1383 27.9622C40.4983 29.1622 37.3983 30.0822 33.8383 30.7222C33.8783 33.4822 34.4783 35.5022 35.6383 36.7822C36.7983 38.0622 38.3983 38.7022 40.4383 38.7022C42.1583 38.7022 43.7383 38.2422 45.1783 37.3222C46.6183 36.3622 47.8383 35.2422 48.8383 33.9622L49.4383 34.3822C48.6383 35.9422 47.5983 37.4222 46.3183 38.8222C45.0783 40.2222 43.6383 41.3822 41.9983 42.3022C40.3583 43.1822 38.5383 43.6222 36.5383 43.6222ZM43.2583 14.5822C42.3383 14.5822 41.3383 14.9822 40.2583 15.7822C39.2183 16.5822 38.2183 17.6822 37.2583 19.0822C36.3383 20.4422 35.5583 22.0222 34.9183 23.8222C34.3183 25.5822 33.9583 27.4622 33.8383 29.4622C38.2383 28.2622 41.3583 26.6822 43.1983 24.7222C45.0783 22.7622 46.0183 20.5422 46.0183 18.0622C46.0183 16.8622 45.7583 15.9822 45.2383 15.4222C44.7183 14.8622 44.0583 14.5822 43.2583 14.5822ZM56.7956 43.6222C55.4756 43.6222 54.4156 43.2822 53.6156 42.6022C52.8556 41.9222 52.4756 40.9422 52.4756 39.6622C52.4756 38.9422 52.5556 38.0822 52.7156 37.0822C52.8756 36.0422 53.1156 34.7222 53.4356 33.1222L56.8556 16.5622C57.1756 15.0422 57.4356 13.6622 57.6356 12.4222C57.8756 11.1822 58.1356 9.78217 58.4156 8.22217C58.6956 6.62217 58.0556 5.54217 56.4956 4.98217L55.4756 4.62216L55.5956 4.02217L67.3556 0.662166L67.7156 1.08217L60.3356 35.8822C60.2156 36.4822 60.1156 37.0222 60.0356 37.5022C59.9556 37.9422 59.9156 38.3222 59.9156 38.6422C59.9156 39.5222 60.2956 39.9622 61.0556 39.9622C62.0556 39.9622 63.5156 39.0622 65.4356 37.2622L66.0356 37.7422C65.0356 39.2222 63.7756 40.5822 62.2556 41.8222C60.7356 43.0222 58.9156 43.6222 56.7956 43.6222ZM78.4991 43.6222C77.4591 43.6222 76.4591 43.4022 75.4991 42.9622C75.0591 44.9622 74.6791 46.7622 74.3591 48.3622C74.0391 49.9622 73.7591 51.4822 73.5191 52.9222C73.3191 54.2422 73.8791 55.0822 75.1991 55.4422L76.6991 55.9222L76.5791 56.5222H62.1191L62.2391 55.9222L63.3791 55.6222C64.7791 55.2222 65.6191 54.3222 65.8991 52.9222L72.6791 20.5822C72.9591 19.0222 72.3991 17.9222 70.9991 17.2822L69.8591 16.8022L69.9791 16.1422L81.0791 12.9022L81.6791 13.3822L80.4191 19.6822C81.9791 17.7222 83.7591 16.1222 85.7591 14.8822C87.7991 13.6022 89.6991 12.9622 91.4591 12.9622C93.0991 12.9622 94.5191 13.5422 95.7191 14.7022C96.9191 15.8622 97.5191 17.9622 97.5191 21.0022C97.5191 23.2022 97.1391 25.3822 96.3791 27.5422C95.6591 29.7022 94.6391 31.7622 93.3191 33.7222C92.0391 35.6422 90.5791 37.3422 88.9391 38.8222C87.2991 40.3022 85.5791 41.4822 83.7791 42.3622C81.9791 43.2022 80.2191 43.6222 78.4991 43.6222ZM86.2391 17.4022C85.3191 17.4022 84.3191 17.7622 83.2391 18.4822C82.1591 19.2022 81.0991 20.2022 80.0591 21.4822L76.5191 38.8222C77.9991 40.3022 79.5391 41.0422 81.1391 41.0422C83.4991 41.0422 85.4391 39.8022 86.9591 37.3222C87.5191 36.3622 88.0391 35.1422 88.5191 33.6622C88.9991 32.1822 89.3791 30.5822 89.6591 28.8622C89.9791 27.1022 90.1391 25.4022 90.1391 23.7622C90.1391 21.7622 89.7991 20.2022 89.1191 19.0822C88.4791 17.9622 87.5191 17.4022 86.2391 17.4022Z" fill="white"/>
</svg>
