<svg width="41" height="41" viewBox="0 0 41 41" fill="none" xmlns="http://www.w3.org/2000/svg">
<g id="Group 263">
<path id="Ellipse 9" d="M41 20.5C41 31.8218 31.8218 41 20.5 41C9.17816 41 0 31.8218 0 20.5C0 9.17816 9.17816 0 20.5 0C31.8218 0 41 9.17816 41 20.5Z" fill="black" fill-opacity="0.75"/>
<g id="Group 255">
<path fill-rule="evenodd" clip-rule="evenodd" d="M19.819 12.0435V10.723H21.1806V12.0435C24.3992 12.385 26.9071 15.1207 26.9071 18.4449V20.9922C26.9071 22.5738 27.3857 24.118 28.2793 25.42L29.0151 26.4923H11.9844L12.7202 25.42C13.6138 24.118 14.0924 22.5738 14.0924 20.9922V18.4449C14.0924 15.1207 16.6003 12.385 19.819 12.0435ZM20.4998 13.3756C17.7131 13.3756 15.454 15.6452 15.454 18.4449V20.9922C15.454 22.4333 15.1159 23.8481 14.4746 25.1243H26.5249C25.8836 23.8481 25.5455 22.4333 25.5455 20.9922V18.4449C25.5455 15.6452 23.2865 13.3756 20.4998 13.3756Z" fill="#F1F7ED"/>
<path id="_2" fill-rule="evenodd" clip-rule="evenodd" d="M17.0308 26.0684V25.8612H18.3387V26.0684C18.3387 27.2992 19.3064 28.297 20.5 28.297C21.6936 28.297 22.6612 27.2992 22.6612 26.0684V25.8612H23.9692V26.0684C23.9692 28.0442 22.416 29.6458 20.5 29.6458C18.584 29.6458 17.0308 28.0442 17.0308 26.0684Z" fill="#F1F7ED"/>
</g>
</g>
</svg>
