<svg width="180" height="39" viewBox="0 0 180 39" fill="none" xmlns="http://www.w3.org/2000/svg">
<path d="M4.18 16.8L4.56 13.98L2.32 15.74L1.36 14.04L3.98 13L1.38 12L2.28 10.38L4.58 12.12L4.18 9.26H6.04L5.64 12.12L7.92 10.38L8.8 11.98L6.2 13.02L8.82 14.06L7.88 15.72L5.64 13.98L6.02 16.8H4.18Z" fill="#AD343E"/>
<path d="M19.36 21V7H24.5C25.62 7 26.54 7.19333 27.26 7.58C27.9933 7.95333 28.54 8.46667 28.9 9.12C29.26 9.76 29.44 10.4733 29.44 11.26C29.44 12.1133 29.2133 12.8933 28.76 13.6C28.32 14.3067 27.6267 14.82 26.68 15.14L29.58 21H26.64L24.04 15.48H21.92V21H19.36ZM21.92 13.6H24.34C25.1933 13.6 25.82 13.3933 26.22 12.98C26.62 12.5667 26.82 12.02 26.82 11.34C26.82 10.6733 26.62 10.14 26.22 9.74C25.8333 9.34 25.2 9.14 24.32 9.14H21.92V13.6ZM35.5755 21.24C34.5755 21.24 33.6888 21.0267 32.9155 20.6C32.1421 20.1733 31.5355 19.5733 31.0955 18.8C30.6555 18.0267 30.4355 17.1333 30.4355 16.12C30.4355 15.0933 30.6488 14.18 31.0755 13.38C31.5155 12.58 32.1155 11.96 32.8755 11.52C33.6488 11.0667 34.5555 10.84 35.5955 10.84C36.5688 10.84 37.4288 11.0533 38.1755 11.48C38.9221 11.9067 39.5021 12.4933 39.9155 13.24C40.3421 13.9733 40.5555 14.7933 40.5555 15.7C40.5555 15.8467 40.5488 16 40.5355 16.16C40.5355 16.32 40.5288 16.4867 40.5155 16.66H32.9755C33.0288 17.4333 33.2955 18.04 33.7755 18.48C34.2688 18.92 34.8621 19.14 35.5555 19.14C36.0755 19.14 36.5088 19.0267 36.8555 18.8C37.2155 18.56 37.4821 18.2533 37.6555 17.88H40.2555C40.0688 18.5067 39.7555 19.08 39.3155 19.6C38.8888 20.1067 38.3555 20.5067 37.7155 20.8C37.0888 21.0933 36.3755 21.24 35.5755 21.24ZM35.5955 12.92C34.9688 12.92 34.4155 13.1 33.9355 13.46C33.4555 13.8067 33.1488 14.34 33.0155 15.06H37.9555C37.9155 14.4067 37.6755 13.8867 37.2355 13.5C36.7955 13.1133 36.2488 12.92 35.5955 12.92ZM50.1886 25.4V19.58C49.8686 20.02 49.4419 20.4067 48.9086 20.74C48.3886 21.0733 47.7086 21.24 46.8686 21.24C45.9353 21.24 45.1019 21.0133 44.3686 20.56C43.6353 20.1067 43.0553 19.4867 42.6286 18.7C42.2019 17.9133 41.9886 17.02 41.9886 16.02C41.9886 15.02 42.2019 14.1333 42.6286 13.36C43.0553 12.5733 43.6353 11.96 44.3686 11.52C45.1019 11.0667 45.9353 10.84 46.8686 10.84C47.6153 10.84 48.2686 10.98 48.8286 11.26C49.3886 11.54 49.8419 11.9333 50.1886 12.44L50.4686 11.08H52.7486V25.4H50.1886ZM47.4086 19C48.2353 19 48.9086 18.7267 49.4286 18.18C49.9619 17.62 50.2286 16.9067 50.2286 16.04C50.2286 15.1733 49.9619 14.4667 49.4286 13.92C48.9086 13.36 48.2353 13.08 47.4086 13.08C46.5953 13.08 45.9219 13.3533 45.3886 13.9C44.8553 14.4467 44.5886 15.1533 44.5886 16.02C44.5886 16.8867 44.8553 17.6 45.3886 18.16C45.9219 18.72 46.5953 19 47.4086 19ZM58.6755 21.24C57.4355 21.24 56.4755 20.8533 55.7955 20.08C55.1288 19.3067 54.7955 18.1733 54.7955 16.68V11.08H57.3355V16.44C57.3355 17.2933 57.5088 17.9467 57.8555 18.4C58.2021 18.8533 58.7488 19.08 59.4955 19.08C60.2021 19.08 60.7821 18.8267 61.2355 18.32C61.7021 17.8133 61.9355 17.1067 61.9355 16.2V11.08H64.4955V21H62.2355L62.0355 19.32C61.7288 19.9067 61.2821 20.3733 60.6955 20.72C60.1221 21.0667 59.4488 21.24 58.6755 21.24ZM68.1034 9.54C67.6368 9.54 67.2501 9.4 66.9434 9.12C66.6501 8.84 66.5034 8.48667 66.5034 8.06C66.5034 7.63333 66.6501 7.28667 66.9434 7.02C67.2501 6.74 67.6368 6.6 68.1034 6.6C68.5701 6.6 68.9501 6.74 69.2434 7.02C69.5501 7.28667 69.7034 7.63333 69.7034 8.06C69.7034 8.48667 69.5501 8.84 69.2434 9.12C68.9501 9.4 68.5701 9.54 68.1034 9.54ZM66.8234 21V11.08H69.3834V21H66.8234ZM71.6555 21V11.08H73.9355L74.1755 12.94C74.5355 12.3 75.0221 11.7933 75.6355 11.42C76.2621 11.0333 76.9955 10.84 77.8355 10.84V13.54H77.1155C76.5555 13.54 76.0555 13.6267 75.6155 13.8C75.1755 13.9733 74.8288 14.2733 74.5755 14.7C74.3355 15.1267 74.2155 15.72 74.2155 16.48V21H71.6555ZM83.8294 21.24C82.8294 21.24 81.9427 21.0267 81.1694 20.6C80.396 20.1733 79.7894 19.5733 79.3494 18.8C78.9094 18.0267 78.6894 17.1333 78.6894 16.12C78.6894 15.0933 78.9027 14.18 79.3294 13.38C79.7694 12.58 80.3694 11.96 81.1294 11.52C81.9027 11.0667 82.8094 10.84 83.8494 10.84C84.8227 10.84 85.6827 11.0533 86.4294 11.48C87.176 11.9067 87.756 12.4933 88.1694 13.24C88.596 13.9733 88.8094 14.7933 88.8094 15.7C88.8094 15.8467 88.8027 16 88.7894 16.16C88.7894 16.32 88.7827 16.4867 88.7694 16.66H81.2294C81.2827 17.4333 81.5494 18.04 82.0294 18.48C82.5227 18.92 83.116 19.14 83.8094 19.14C84.3294 19.14 84.7627 19.0267 85.1094 18.8C85.4694 18.56 85.736 18.2533 85.9094 17.88H88.5094C88.3227 18.5067 88.0094 19.08 87.5694 19.6C87.1427 20.1067 86.6094 20.5067 85.9694 20.8C85.3427 21.0933 84.6294 21.24 83.8294 21.24ZM83.8494 12.92C83.2227 12.92 82.6694 13.1 82.1894 13.46C81.7094 13.8067 81.4027 14.34 81.2694 15.06H86.2094C86.1694 14.4067 85.9294 13.8867 85.4894 13.5C85.0494 13.1133 84.5027 12.92 83.8494 12.92ZM95.1225 21.24C94.1892 21.24 93.3558 21.0133 92.6225 20.56C91.8892 20.1067 91.3092 19.4867 90.8825 18.7C90.4558 17.9133 90.2425 17.02 90.2425 16.02C90.2425 15.02 90.4558 14.1333 90.8825 13.36C91.3092 12.5733 91.8892 11.96 92.6225 11.52C93.3558 11.0667 94.1892 10.84 95.1225 10.84C95.8692 10.84 96.5225 10.98 97.0825 11.26C97.6425 11.54 98.0958 11.9333 98.4425 12.44V6.6H101.002V21H98.7225L98.4425 19.58C98.1225 20.02 97.6958 20.4067 97.1625 20.74C96.6425 21.0733 95.9625 21.24 95.1225 21.24ZM95.6625 19C96.4892 19 97.1625 18.7267 97.6825 18.18C98.2158 17.62 98.4825 16.9067 98.4825 16.04C98.4825 15.1733 98.2158 14.4667 97.6825 13.92C97.1625 13.36 96.4892 13.08 95.6625 13.08C94.8492 13.08 94.1758 13.3533 93.6425 13.9C93.1092 14.4467 92.8425 15.1533 92.8425 16.02C92.8425 16.8867 93.1092 17.6 93.6425 18.16C94.1758 18.72 94.8492 19 95.6625 19ZM108.035 21V13.22H106.675V11.08H108.035V9.92C108.035 8.72 108.335 7.86667 108.935 7.36C109.548 6.85333 110.375 6.6 111.415 6.6H112.515V8.78H111.815C111.375 8.78 111.062 8.86667 110.875 9.04C110.688 9.21333 110.595 9.50667 110.595 9.92V11.08H116.995V21H114.435V13.22H110.595V21H108.035ZM115.735 9.66C115.268 9.66 114.882 9.52 114.575 9.24C114.282 8.96 114.135 8.60667 114.135 8.18C114.135 7.75333 114.282 7.40667 114.575 7.14C114.882 6.86 115.268 6.72 115.735 6.72C116.202 6.72 116.582 6.86 116.875 7.14C117.182 7.40667 117.335 7.75333 117.335 8.18C117.335 8.60667 117.182 8.96 116.875 9.24C116.582 9.52 116.202 9.66 115.735 9.66ZM124.124 21.24C123.124 21.24 122.237 21.0267 121.464 20.6C120.691 20.1733 120.084 19.5733 119.644 18.8C119.204 18.0267 118.984 17.1333 118.984 16.12C118.984 15.0933 119.197 14.18 119.624 13.38C120.064 12.58 120.664 11.96 121.424 11.52C122.197 11.0667 123.104 10.84 124.144 10.84C125.117 10.84 125.977 11.0533 126.724 11.48C127.471 11.9067 128.051 12.4933 128.464 13.24C128.891 13.9733 129.104 14.7933 129.104 15.7C129.104 15.8467 129.097 16 129.084 16.16C129.084 16.32 129.077 16.4867 129.064 16.66H121.524C121.577 17.4333 121.844 18.04 122.324 18.48C122.817 18.92 123.411 19.14 124.104 19.14C124.624 19.14 125.057 19.0267 125.404 18.8C125.764 18.56 126.031 18.2533 126.204 17.88H128.804C128.617 18.5067 128.304 19.08 127.864 19.6C127.437 20.1067 126.904 20.5067 126.264 20.8C125.637 21.0933 124.924 21.24 124.124 21.24ZM124.144 12.92C123.517 12.92 122.964 13.1 122.484 13.46C122.004 13.8067 121.697 14.34 121.564 15.06H126.504C126.464 14.4067 126.224 13.8867 125.784 13.5C125.344 13.1133 124.797 12.92 124.144 12.92ZM130.857 21V6.6H133.417V21H130.857ZM140.193 21.24C139.259 21.24 138.426 21.0133 137.693 20.56C136.959 20.1067 136.379 19.4867 135.953 18.7C135.526 17.9133 135.313 17.02 135.313 16.02C135.313 15.02 135.526 14.1333 135.953 13.36C136.379 12.5733 136.959 11.96 137.693 11.52C138.426 11.0667 139.259 10.84 140.193 10.84C140.939 10.84 141.593 10.98 142.153 11.26C142.713 11.54 143.166 11.9333 143.513 12.44V6.6H146.073V21H143.793L143.513 19.58C143.193 20.02 142.766 20.4067 142.233 20.74C141.713 21.0733 141.033 21.24 140.193 21.24ZM140.733 19C141.559 19 142.233 18.7267 142.753 18.18C143.286 17.62 143.553 16.9067 143.553 16.04C143.553 15.1733 143.286 14.4667 142.753 13.92C142.233 13.36 141.559 13.08 140.733 13.08C139.919 13.08 139.246 13.3533 138.713 13.9C138.179 14.4467 137.913 15.1533 137.913 16.02C137.913 16.8867 138.179 17.6 138.713 18.16C139.246 18.72 139.919 19 140.733 19Z" fill="#AD343E"/>
</svg>
