<svg width="26" height="21" viewBox="0 0 26 21" fill="none" xmlns="http://www.w3.org/2000/svg">
<g id="Show">
<path id="Fill 1" fill-rule="evenodd" clip-rule="evenodd" d="M12.9996 7.05151C11.3371 7.05151 9.98584 8.40401 9.98584 10.0665C9.98584 11.7278 11.3371 13.079 12.9996 13.079C14.6621 13.079 16.0146 11.7278 16.0146 10.0665C16.0146 8.40401 14.6621 7.05151 12.9996 7.05151ZM12.9996 14.954C10.3033 14.954 8.11084 12.7615 8.11084 10.0665C8.11084 7.37026 10.3033 5.17651 12.9996 5.17651C15.6958 5.17651 17.8896 7.37026 17.8896 10.0665C17.8896 12.7615 15.6958 14.954 12.9996 14.954Z" fill="black"/>
<g id="Group 5">
<mask id="mask0_195_121" style="mask-type:luminance" maskUnits="userSpaceOnUse" x="0" y="0" width="26" height="21">
<path id="Clip 4" fill-rule="evenodd" clip-rule="evenodd" d="M0.500244 0.000244141H25.5001V20.1315H0.500244V0.000244141Z" fill="white"/>
</mask>
<g mask="url(#mask0_195_121)">
<path id="Fill 3" fill-rule="evenodd" clip-rule="evenodd" d="M2.46243 10.0657C4.78743 15.2019 8.70368 18.2557 12.9999 18.2569C17.2962 18.2557 21.2124 15.2019 23.5374 10.0657C21.2124 4.93069 17.2962 1.87694 12.9999 1.87569C8.70493 1.87694 4.78743 4.93069 2.46243 10.0657ZM13.0024 20.1319H12.9974H12.9962C7.82618 20.1282 3.18368 16.5044 0.576182 10.4357C0.474932 10.1994 0.474932 9.93194 0.576182 9.69569C3.18368 3.62819 7.82743 0.00444336 12.9962 0.000693359C12.9987 -0.000556641 12.9987 -0.000556641 12.9999 0.000693359C13.0024 -0.000556641 13.0024 -0.000556641 13.0037 0.000693359C18.1737 0.00444336 22.8162 3.62819 25.4237 9.69569C25.5262 9.93194 25.5262 10.1994 25.4237 10.4357C22.8174 16.5044 18.1737 20.1282 13.0037 20.1319H13.0024Z" fill="black"/>
</g>
</g>
</g>
</svg>
